<svg xmlns="http://www.w3.org/2000/svg" xmlns:xlink="http://www.w3.org/1999/xlink" version="1.1" width="256" height="256" viewBox="0 0 256 256" xml:space="preserve">
<desc>Created with Fabric.js 1.7.22</desc>
<defs>
</defs>
<g transform="translate(128 128) scale(0.72 0.72)" style="">
	<g style="stroke: none; stroke-width: 0; stroke-dasharray: none; stroke-linecap: butt; stroke-linejoin: miter; stroke-miterlimit: 10; fill: none; fill-rule: nonzero; opacity: 1;" transform="translate(-175.05 -175.05000000000004) scale(3.89 3.89)" >
	<path d="M 34.306 62.603 l 6.045 11.323 c -0.789 1.491 -1.302 3.552 -1.302 5.239 v 5.19 c 0 1.817 -1.473 3.291 -3.291 3.291 H 21.664 c -1.817 0 -3.291 -1.473 -3.291 -3.291 v -1.867 c 0 -1.525 -0.608 -2.987 -1.689 -4.062 l -5.249 -5.222 c -4.354 -4.332 -7.276 -9.894 -8.371 -15.938 L 0.53 38.659 c -0.22 -1.213 0.81 -2.29 2.032 -2.123 C 13.723 40.387 24.152 50.34 34.306 62.603 z" style="stroke: none; stroke-width: 1; stroke-dasharray: none; stroke-linecap: butt; stroke-linejoin: miter; stroke-miterlimit: 10; fill: rgb(247,200,187); fill-rule: nonzero; opacity: 1;" transform=" matrix(1 0 0 1 0 0) " stroke-linecap="round" />
	<path d="M 87.438 36.536 c 1.222 -0.167 2.251 0.91 2.032 2.123 l -2.534 18.608 c -1.095 6.044 -4.016 11.606 -8.371 15.938 l -5.249 5.222 c -1.081 1.075 -1.689 2.537 -1.689 4.062 v 1.867 c 0 1.817 -1.473 3.291 -3.291 3.291 H 54.241 c -1.817 0 -3.291 -1.473 -3.291 -3.291 v -5.19 c 0 -1.687 -0.475 -3.6 -1.265 -5.091 l 7.947 -15.115 C 67.721 47.888 77.69 39.636 87.438 36.536 z" style="stroke: none; stroke-width: 1; stroke-dasharray: none; stroke-linecap: butt; stroke-linejoin: miter; stroke-miterlimit: 10; fill: rgb(247,200,187); fill-rule: nonzero; opacity: 1;" transform=" matrix(1 0 0 1 0 0) " stroke-linecap="round" />
	<path d="M 86.334 36.793 c 5.7 -8.621 4.754 -20.343 -2.838 -27.935 v 0 c -8.673 -8.673 -22.735 -8.673 -31.408 0 l -4.808 4.808 c -1.259 1.259 -3.301 1.259 -4.56 0 l -4.808 -4.808 c -8.673 -8.673 -22.735 -8.673 -31.408 0 v 0 c -7.589 7.589 -8.537 19.303 -2.846 27.924 l 7.437 8.075 l 2.496 2.496 l 29.269 29.269 c 1.181 1.181 3.096 1.181 4.278 0 l 29.269 -29.269 l 0 0 l 2.501 -2.501 L 86.334 36.793 z" style="stroke: none; stroke-width: 1; stroke-dasharray: none; stroke-linecap: butt; stroke-linejoin: miter; stroke-miterlimit: 10; fill: rgb(249,0,59); fill-rule: nonzero; opacity: 1;" transform=" matrix(1 0 0 1 0 0) " stroke-linecap="round" />
	<path d="M 83.495 8.858 L 83.495 8.858 c -4.307 -4.307 -9.942 -6.47 -15.587 -6.499 c 2.256 1.042 4.379 2.469 6.239 4.329 v 0 c 7.407 7.407 8.33 18.841 2.769 27.252 l -7.244 7.863 l -2.439 2.439 L 38.857 72.618 l 4.004 4.004 c 1.181 1.181 3.096 1.181 4.278 0 l 29.269 -29.269 l 2.501 -2.501 l 7.425 -8.06 C 92.034 28.172 91.087 16.45 83.495 8.858 z" style="stroke: none; stroke-width: 1; stroke-dasharray: none; stroke-linecap: butt; stroke-linejoin: miter; stroke-miterlimit: 10; fill: rgb(224,0,53); fill-rule: nonzero; opacity: 1;" transform=" matrix(1 0 0 1 0 0) " stroke-linecap="round" />
	<path d="M 25.032 65.019 c -0.8 -0.848 -1.65 -1.508 -2.54 -2.088 c -0.887 -0.577 -1.8 -1.072 -2.727 -1.496 c -1.855 -0.847 -3.76 -1.418 -5.639 -1.709 c -0.883 -0.136 -1.548 -0.811 -1.714 -1.639 l -0.073 -0.369 c -0.781 -3.932 -1.8 -7.814 -3.161 -11.532 c -0.688 -1.854 -1.46 -3.666 -2.445 -5.349 c -1.012 -1.661 -2.17 -3.218 -4.158 -4.293 c 1.083 -0.152 2.345 -0.054 3.426 0.425 c 1.133 0.417 2.112 1.105 3.047 1.843 c 1.804 1.534 3.203 3.428 4.316 5.419 c 1.1 2.003 1.927 4.122 2.534 6.293 c 0.584 2.176 0.977 4.402 1.086 6.658 l -1.787 -2.007 c 2.411 0.745 4.597 2.015 6.365 3.687 c 0.882 0.837 1.663 1.776 2.279 2.815 C 24.448 62.712 24.92 63.854 25.032 65.019 z" style="stroke: none; stroke-width: 1; stroke-dasharray: none; stroke-linecap: butt; stroke-linejoin: miter; stroke-miterlimit: 10; fill: rgb(234,179,163); fill-rule: nonzero; opacity: 1;" transform=" matrix(1 0 0 1 0 0) " stroke-linecap="round" />
	<path d="M 64.968 65.019 c 0.112 -1.165 0.584 -2.307 1.19 -3.343 c 0.616 -1.039 1.397 -1.978 2.279 -2.815 c 1.768 -1.672 3.954 -2.942 6.365 -3.687 l -1.787 2.007 c 0.109 -2.255 0.502 -4.481 1.086 -6.658 c 0.606 -2.171 1.433 -4.29 2.534 -6.293 c 1.113 -1.991 2.513 -3.884 4.316 -5.419 c 0.935 -0.738 1.913 -1.426 3.047 -1.843 c 1.081 -0.478 2.343 -0.577 3.426 -0.425 c -1.987 1.075 -3.146 2.632 -4.158 4.293 c -0.985 1.683 -1.757 3.495 -2.445 5.349 c -1.36 3.718 -2.38 7.6 -3.161 11.532 l -0.072 0.364 c -0.174 0.876 -0.881 1.512 -1.715 1.643 c -1.88 0.291 -3.784 0.862 -5.639 1.709 c -0.927 0.424 -1.84 0.919 -2.727 1.496 C 66.618 63.511 65.768 64.171 64.968 65.019 z" style="stroke: none; stroke-width: 1; stroke-dasharray: none; stroke-linecap: butt; stroke-linejoin: miter; stroke-miterlimit: 10; fill: rgb(234,179,163); fill-rule: nonzero; opacity: 1;" transform=" matrix(1 0 0 1 0 0) " stroke-linecap="round" />
</g>
</g>
</svg>